<svg id="Vrstva_1" xmlns="http://www.w3.org/2000/svg" viewBox="0 0 40 480"><style>.st0{fill:#b7d167}.st1{fill:#2daae1}</style><path class="st0" d="M29.6 25.4C29 24.5 27 23.9 25 23c-.8-.3-1.7-.7-2.5-1.1V20c.6-.6 1-1.5 1-2.4.5.1 1-.7 1-1.1s-.1-1.6-.6-1.5c.1-.7.2-1.4.2-2.1-.3-1.9-2.1-3.3-4-3.2-1.9-.1-3.7 1.2-4 3.2 0 .7 0 1.4.2 2.1-.6-.1-.7 1-.6 1.5s.5 1.3 1 1.1c0 .9.4 1.7 1 2.4v1.9c-.8.4-1.7.8-2.6 1.1-2 .8-4 1.4-4.6 2.4s-.5 4.9-.5 4.9h20s.1-4.1-.4-4.9zM29.6 65.4c-.6-1-2.6-1.5-4.6-2.4-.8-.3-1.7-.7-2.5-1.1V60c.6-.6 1-1.5 1-2.4.5.1 1-.7 1-1.1s-.1-1.6-.6-1.5c.1-.7.2-1.4.2-2.1-.3-1.9-2.1-3.3-4-3.2-1.9-.1-3.7 1.2-4 3.2 0 .7 0 1.4.2 2.1-.6-.1-.7 1-.6 1.5s.5 1.3 1 1.1c0 .9.4 1.7 1 2.4v1.9c-.8.4-1.7.8-2.6 1.1-2 .8-4 1.4-4.6 2.3s-.5 5-.5 5h20s.1-4.1-.4-4.9zM20 90.2c-5.4 0-9.9 4.4-9.9 9.8s4.4 9.8 9.9 9.8 9.9-4.4 9.9-9.8c-.1-5.4-4.5-9.8-9.9-9.8zm2.7 15c.1 0 .1 0 .1-.1 0 .1 0 .2.1.3-.1-.5.4-.6.7-.9.1-.1.3-.5.4-.5v.3c0-.1 0 0 0 0 0 .1 0 .2-.1.3v-.1c-.4.3-.4 1.4-1 1.6-.3.1-.3-.3-.2-.4s-.1-.3 0-.5c-.1 0-.2-.3-.2-.5s.2-.1.2-.1c.1-.1.1-.2.2-.3 0 .2-.3.7-.2.9zm4.4-6.4c-.2-.3-.3-.7-.4-.9s-.3-.9-.6-1.1c.1.1.1.2 0 .3-.2 0-.3-.1-.4-.3 0-.1.2.1.1-.1-.3 0-.4-.2-.6-.4-.4 0-.8.3-1.1 0-.1-.1-.2-.3-.3-.2-.1.1-.2.1-.3.1-.4-.1-.6-.5-1-.5 0 .2.3.4.4.5s.3.5.3.1c.2.1.1.4.4.3.3.1.2-.3.2-.4.1 0 .1.3.2.3s.3.1.5.2c.2.2.2.4.2.6-.1 0 0 .2-.1.3-.1.1-.1.2-.1.3-.2 0-.4.1-.4.3-.1.2-1.2.9-1.4.7-.1-.3-.3-.6-.4-.9-.3-.2-.6-.5-.7-.8.1-.4-.9-1.1-1.1-1.1.1.5.5.8.8 1.2s.5 1.1.7 1.2c.4 0 .7.7.9.9s.9-.5 1.2-.4c.1.3 0 .6 0 .9-.2.7-.6 1.3-1.1 1.8-.2.3-.5.6-.7 1-.2.3.3 1 .2 1.2.1.4-.1.9-.5 1.1-.3.2-.6.4-.5.8s-.3.4-.4.6c-.1.3-.3.5-.6.7H20c-.3 0-.6 0-.9-.1-.4-.5-.8-1-1.1-1.4-.2-.3-.6-.8-.2-1.1 0-.4-.2-.7-.4-1-.2-.3-1.2-1.1-.8-1.5 0-.3-.2-.5-.2-.7-.2-.2-.4.2-.6-.1s-.6-.3-.9 0c-.3.1-.7.1-1 .1-.6-.6-.9-1.4-.7-2.3.1-.3.1-.9.4-1.2.1-.3.5-.7.7-1s.3-.2.4-.3c.2-.3.3-.5.6-.7.3-.2.8-.6.3-.6l.6-.9c.2-.1.5-.1.6-.2.2-.3.2-.3.2-.5s.5-.2.5-.3c.2-.1.3-.2.5-.3 3.8-1.1 7.8 1.1 8.9 4.9.1.3.2.6.2.9z"/><path class="st0" d="M20.2 94c0 .1.5.1.5.1-.1 0 0 0 0 0 .4-.3-.9-.5-.9-.5s.1 0 .1-.1c-.2.1-.1-.2-.3.1.1.2-.2.3-.1.5s.5 0 .7-.1zM18.5 94.5c-.2-.1-.1.1-.2.2s-.2.3-.5.2c0-.3.6 0 .3-.5-.1-.2-.3-.5-.5-.3s-.7.3-.9.6c-.1.1-.9.7-.9.8.3.2 1.5-.7 1.8-.4 0 .2-.3.3-.3.6.1 0 .1.1.2.1.4-.1.3.2.6.3.5.1.1 0 .4-.3.1-.1.6-.1.7.1 0-.1.2 0 0 0 .2 0 .5.2.6 0 .1-.1.2-.1.3 0 .4.3.3-.9.3-1-.1.1-1 .2-1 .1s-.1-.1-.2-.2c.2-.2-.1-.1 0-.3h-.3c0 .1.1.1-.1.1-.1.2.1.3.1.4h-.1v.2c-.3-.1-.1-.3-.4-.6.2-.2-.5-.5-.4-.7-.2 0 .7.5.5.6zm-.9.2h-.1c0-.1.2-.6.3-.6 0 .2-.2.5-.2.6z"/><path class="st0" d="M17.6 94.7c0-.1-.1 0 0 0zM21.8 94.2c-.1 0 0 .4.2.4.1.1.3.1.4.1 0-.3-.8-.9-1-1 0 0 0-.1.1-.1-.1-.3-.4-.1-.4.1s.7.3.7.5z"/><path class="st0" d="M22 94.6c-.1 0 .1.1 0 0zM22.4 93.7c-.1 0-.3-.3-.4-.3s0 .1 0 .1.1.1 0 0c.1 0 .3.3.4.2zM17 94.1l-.1.1.1-.1zM24.6 132.1H18v-1.3c0-.7-.6-1.3-1.3-1.3-.7 0-1.3.6-1.3 1.3v1.3c-1.5 0-2.6 1.2-2.6 2.6v13.1c0 1.5 1.2 2.6 2.6 2.6h9.2c1.5 0 2.6-1.2 2.6-2.6v-13.1c0-1.4-1.2-2.6-2.6-2.6zm-7.9 15.8h-1.3v-1.3h1.3v1.3zm0-2.7h-1.3v-1.3h1.3v1.3zm0-2.6h-1.3v-1.3h1.3v1.3zm2.7 5.3H18v-1.3h1.3l.1 1.3zm0-2.7H18v-1.3h1.3l.1 1.3zm0-2.6H18v-1.3h1.3l.1 1.3zm2.6 5.3h-1.3v-1.3H22v1.3zm0-2.6h-1.3V144H22v1.3zm0-2.7h-1.3v-1.3H22v1.3zm2.6 5.3h-1.4v-1.3h1.3l.1 1.3zm0-2.7h-1.4v-1.3h1.3l.1 1.3zm0-2.6h-1.4v-1.3h1.3l.1 1.3zm0-2.6h-9.2v-5.3h9.2v5.3zM20 181.7l8.9-7.9H11.2l8.8 7.9zM30 175c0-.1 0-.3-.1-.4l-6.3 5.6 6.2 5.4c.1-.2.2-.4.2-.6v-10zM10.1 174.5c-.1.2-.1.3-.1.5v10c0 .2 0 .3.1.5l6.3-5.4-6.3-5.6z"/><path class="st0" d="M22.7 181l-2.7 2.3-2.7-2.3-6.1 5.3h17.5l-6-5.3zM25.9 217.9v-1.8c0-3.3-2.6-5.9-5.9-5.9s-5.9 2.6-5.9 5.9v1.8h-1.3v11.8h14.4v-11.8h-1.3zm-5 9.2h-2.2l.5-3c-.3-.2-.5-.5-.5-.9 0-.6.5-1.1 1.1-1.1s1.1.5 1.1 1.1c0 .4-.2.7-.5.9l.5 3zm2.4-9.2h-6.6v-1.8c.1-1.8 1.7-3.2 3.5-3.1 1.7.1 3 1.4 3.1 3.1v1.8z"/><path class="st1" d="M29.6 265.4c-.6-.9-2.6-1.5-4.6-2.4-.8-.3-1.7-.7-2.5-1.1V260c.6-.6 1-1.5 1-2.4.5.1 1-.7 1-1.1s-.1-1.6-.6-1.5c.1-.7.2-1.4.2-2.1-.3-1.9-2.1-3.3-4-3.2-1.9-.1-3.7 1.2-4 3.2 0 .7 0 1.4.2 2.1-.6-.1-.7 1.1-.6 1.5s.5 1.3 1 1.1c0 .9.4 1.7 1 2.4v1.9c-.8.4-1.7.8-2.6 1.1-2 .8-4 1.4-4.6 2.4s-.4 4.9-.4 4.9h20c-.1-.1 0-4.1-.5-4.9zM29.6 305.4c-.6-.9-2.6-1.5-4.6-2.4-.8-.3-1.7-.7-2.5-1.1V300c.6-.6 1-1.5 1-2.4.5.1 1-.7 1-1.1s-.1-1.6-.6-1.5c.1-.7.2-1.4.2-2.1-.3-1.9-2.1-3.3-4-3.2-1.9-.1-3.7 1.2-4 3.2 0 .7 0 1.4.2 2.1-.6-.1-.7 1-.6 1.5s.5 1.3 1 1.1c0 .9.4 1.7 1 2.4v1.9c-.8.4-1.7.8-2.6 1.1-2 .8-4 1.4-4.6 2.4s-.4 4.9-.4 4.9h20c-.1-.1 0-4.1-.5-4.9zM20 330.1c-5.4 0-9.9 4.4-9.9 9.9s4.4 9.9 9.9 9.9 9.8-4.4 9.9-9.9-4.5-9.9-9.9-9.9zm2.7 15c.1 0 .1 0 .1-.1 0 .1 0 .2.1.3-.1-.5.4-.6.7-.9.1-.1.3-.5.4-.5v.3c0-.1 0 0 0 0 0 .1 0 .2-.1.3v-.1c-.4.4-.4 1.4-1 1.6-.3.1-.3-.3-.2-.5s-.1-.1 0-.4c-.1 0-.2-.3-.2-.5s.2-.1.2 0c.1-.1.1-.2.2-.3 0 .2-.3.7-.2.8zm4.4-6.2c-.2-.3-.3-.7-.4-.9s-.3-.9-.6-1.1c.1.1.1.2 0 .3-.2 0-.3-.1-.4-.3 0-.1.2.1.1-.1-.3 0-.4-.2-.6-.4-.4 0-.8.3-1.1 0-.1 0-.2-.4-.3-.2-.1.1-.2.1-.3.1-.4-.1-.6-.5-1-.5 0 .2.3.4.4.5s.3.5.3.1c.2.1.1.4.4.3.3.1.2-.3.2-.4.1 0 .1.3.2.3s.3.1.5.2c.2.2.2.4.2.6-.1 0 0 .2-.1.3-.1.1-.1.2-.1.4-.2 0-.4.1-.4.4-.1.1-1.2.9-1.4.7-.1-.3-.3-.6-.4-.9-.3-.2-.6-.5-.7-.8.1-.4-.9-1.1-1.1-1.1.1.5.5.8.8 1.1s.5 1.1.7 1.2c.4 0 .7.7.9.9s.9-.5 1.2-.4c.1.3 0 .6 0 .8-.2.7-.6 1.3-1.1 1.8-.2.3-.5.6-.7 1-.2.3.3 1 .2 1.2.1.4-.1.9-.5 1.1-.3.2-.6.4-.5.8s-.3.4-.4.6c-.1.3-.3.5-.6.6h-1.4c-.4-.5-.8-1-1.1-1.4-.2-.3-.6-.8-.2-1.1 0-.4-.2-.7-.4-1-.2-.4-1.2-1.1-.8-1.5 0-.3-.2-.5-.2-.7-.2-.2-.4.2-.6-.1s-.6-.3-.9 0c-.3.1-.7.1-1 .1-.6-.6-.9-1.5-.6-2.3.1-.3.1-.9.4-1.1.1-.4.5-.7.7-1s.3-.2.4-.3c.2-.3.3-.5.6-.7.3-.2.8-.6.3-.6l.6-.9c.2-.1.5-.1.6-.2.2-.3.2-.3.2-.5s.5-.2.5-.3c.2-.1.3-.2.5-.3 3.8-1.1 7.8 1.1 8.9 4.9.1.3.1.6.2.8h-.1z"/><path class="st1" d="M20.2 334c0 .1.5.1.5.1-.1 0 0 0 0 0 .4-.3-.9-.5-.9-.5s.1 0 .1-.1c-.2.1-.1-.2-.3.1.1.2-.2.3-.1.5s.5 0 .7-.1zM18.5 334.5c-.2-.1-.1 0-.2.2s-.2.3-.5.2c0-.3.6 0 .3-.5-.1-.2-.3-.5-.5-.3s-.7.3-.9.6c-.1.1-.9.7-.9.8.3.2 1.5-.7 1.8-.4 0 .2-.3.4-.3.5.1 0 .1.1.2.1.4-.1.3.2.6.3.5.1.1 0 .4-.3.1-.1.6-.1.7.1 0-.1.2 0 0 0 .2 0 .5.2.6 0 .1-.1.2-.1.3 0 .4.3.3-.9.3-1-.1.1-1 .2-1 .1s-.1-.1-.2-.2c.2-.2-.1-.1 0-.3h-.3c0 .1.1.1-.1 0-.1.2.1.3.1.4h-.1v.2c-.3 0-.1-.3-.4-.6.2-.2-.5-.5-.4-.6-.2.1.7.6.5.7zm-.9.2h-.1c0-.1.2-.6.3-.6 0 .2-.2.4-.2.6z"/><path class="st1" d="M17.6 334.7c0-.1-.1 0 0 0zM21.8 334.2c-.1 0 0 .4.2.4.1.1.3.1.4.1 0-.3-.8-.9-1-1 0 0 0-.1.1-.1-.1-.3-.4-.1-.4.1s.7.3.7.5z"/><path class="st1" d="M22 334.5c-.1 0 .1.1 0 0zM22.4 333.6c-.1 0-.3-.3-.4-.3s0 .1 0 .1.1.1 0 0c.1.1.3.4.4.2zM17 334.1l-.1.1.1-.1zM24.6 372.1H18v-1.3c0-.7-.6-1.3-1.3-1.3-.7 0-1.3.6-1.3 1.3v1.3c-1.5 0-2.6 1.2-2.6 2.6v13.1c0 1.5 1.2 2.6 2.6 2.6h9.2c1.5 0 2.6-1.2 2.6-2.6v-13.1c0-1.4-1.2-2.6-2.6-2.6zm-7.9 15.8h-1.3v-1.3h1.3v1.3zm0-2.6h-1.3V384h1.3v1.3zm0-2.7h-1.3v-1.3h1.3v1.3zm2.7 5.3H18v-1.3h1.3l.1 1.3zm0-2.7H18v-1.3h1.3l.1 1.3zm0-2.6H18v-1.3h1.3l.1 1.3zm2.6 5.3h-1.3v-1.3H22v1.3zm0-2.6h-1.3V384H22v1.3zm0-2.7h-1.3v-1.3H22v1.3zm2.6 5.3h-1.4v-1.3h1.3l.1 1.3zm0-2.7h-1.4v-1.3h1.3l.1 1.3zm0-2.6h-1.4v-1.3h1.3l.1 1.3zm0-2.6h-9.2v-5.3h9.2v5.3zM20 421.7l8.9-7.9H11.2l8.8 7.9zM30 415c0-.1 0-.3-.1-.4l-6.3 5.6 6.2 5.4c.1-.2.2-.4.2-.6v-10zM10.1 414.5c-.1.2-.1.3-.1.5v10c0 .2 0 .3.1.5l6.3-5.4-6.3-5.6z"/><path class="st1" d="M22.7 421l-2.7 2.3-2.7-2.3-6.1 5.3h17.5l-6-5.3zM25.9 457.9v-1.8c0-3.3-2.6-5.9-5.9-5.9s-5.9 2.6-5.9 5.9v1.8h-1.3v11.8h14.4v-11.8h-1.3zm-5 9.2h-2.2l.5-3c-.3-.2-.5-.5-.5-.9 0-.6.5-1.1 1.1-1.1s1.1.5 1.1 1.1c0 .4-.2.7-.5.9l.5 3zm2.4-9.2h-6.6v-1.8c.1-1.8 1.7-3.2 3.5-3.1 1.7.1 3 1.4 3.1 3.1v1.8z"/></svg>